<svg width="40" height="60" viewBox="0 0 40 60" fill="none" xmlns="http://www.w3.org/2000/svg">
<path d="M21.5128 1.59231L21.5108 1.59054C21.4014 1.49385 21.2537 1.39994 21.0354 1.28183C20.9824 1.25316 20.918 1.21947 20.8471 1.18239C20.7517 1.13249 20.6445 1.07645 20.5377 1.01825C20.0375 1.01802 19.5338 1.01649 19.0285 1.00601C18.9779 1.03205 18.9287 1.05697 18.8851 1.07905C18.8334 1.10521 18.7896 1.12738 18.7606 1.14269C18.6169 1.21858 18.5462 1.26673 18.5065 1.30233C16.2738 3.30822 13.6671 3.89634 10.8547 3.76951C9.75882 3.7219 8.93646 4.40046 8.62288 5.64768L8.62196 5.65131C8.01477 8.02859 6.69442 9.73862 4.6297 11.01C3.83218 11.5011 3.45601 11.9907 3.30554 12.4603C3.15402 12.9332 3.17603 13.5582 3.52425 14.4298C4.36455 16.5013 4.42264 18.4993 3.55952 20.6207L3.55835 20.6236C3.18016 21.5449 3.15452 22.1798 3.30503 22.6529C3.45496 23.1242 3.8387 23.6203 4.67061 24.1405C6.6864 25.393 7.97498 27.0626 8.59201 29.3863C8.80415 30.1814 9.14984 30.6734 9.55746 30.9661C9.96535 31.2589 10.5475 31.4326 11.3841 31.3793L11.3882 31.3791C13.9414 31.2271 16.1141 31.9277 18.0979 33.5166C18.6777 33.9804 19.2557 34.1753 19.7911 34.1753C20.3266 34.1753 20.9046 33.9804 21.4843 33.5166L21.4882 33.5135C23.4784 31.9376 25.6397 31.2362 28.194 31.3882L28.1984 31.3885C29.0294 31.4416 29.6122 31.2684 30.0221 30.9747C30.4316 30.6813 30.7788 30.1885 30.9904 29.3949L30.9912 29.392C31.617 27.0734 32.8936 25.4033 34.9126 24.149L34.9133 24.1486C35.7434 23.6338 36.125 23.1404 36.2749 22.6689C36.4263 22.1931 36.4013 21.5534 36.0297 20.6244L36.0287 20.6219C35.2151 18.5725 35.1913 16.617 36.0103 14.5537C36.3953 13.5785 36.4222 12.9296 36.2695 12.4513C36.1184 11.9779 35.7292 11.4783 34.8587 10.9353C34.858 10.9349 34.8573 10.9345 34.8565 10.934L35.3855 10.0853C33.6025 8.98811 32.5235 7.54343 31.9841 5.52271L21.5128 1.59231ZM21.5128 1.59231C23.489 3.32924 25.7589 3.88062 28.2447 3.74154C29.064 3.69623 29.6375 3.87295 30.0438 4.17105C30.4517 4.47043 30.8006 4.97272 31.0183 5.78201L21.5128 1.59231ZM32.6823 17.5437C32.6625 10.409 26.9213 4.68806 19.7971 4.67815M32.6823 17.5437L19.7971 4.67815M32.6823 17.5437C32.7113 24.6638 26.9871 30.411 19.8575 30.4605M32.6823 17.5437L19.8575 30.4605M19.7971 4.67815C12.6318 4.66824 6.82064 10.515 6.9 17.6673M19.7971 4.67815L6.9 17.6673M6.9 17.6673C6.97919 24.8045 12.7358 30.5101 19.8575 30.4605M6.9 17.6673L19.8575 30.4605" stroke="#5C62E3" stroke-width="2"/>
<path d="M32.8308 47.3853C33.8867 50.2087 35.585 52.6564 37.575 54.9511C36.0924 54.8319 34.6567 54.3339 33.0426 53.6484L32.0722 53.2362L31.7119 54.2271C31.2508 55.4952 30.7986 56.7365 30.3364 58.0044C26.2967 52.8781 23.7785 47.1156 22.6464 40.8103C22.9023 40.6649 23.152 40.5224 23.3971 40.3827C24.4075 39.8066 25.3391 39.2754 26.2942 38.763L26.2942 38.763L26.299 38.7604C26.6206 38.5857 26.9829 38.4657 27.3168 38.4272L27.3168 38.4272L27.3271 38.4259C28.1694 38.3199 29.0068 38.2499 29.8166 38.1822C29.8932 38.1758 29.9696 38.1695 30.0457 38.1631C30.2468 38.8662 30.4444 39.5804 30.6437 40.3008C31.2945 42.6526 31.9635 45.0705 32.8308 47.3853Z" stroke="#5C62E3" stroke-width="2"/>
<path d="M16.9626 40.7388C15.8253 47.1028 13.2974 52.866 9.25646 57.9994C8.8077 56.7384 8.36436 55.499 7.89872 54.2105L7.5354 53.2051L6.55648 53.6346C4.94951 54.3396 3.46702 54.8284 1.94934 54.9595C2.0066 54.8813 2.0632 54.8041 2.11915 54.7277C4.75734 51.1263 5.9538 49.493 6.73091 47.6811C7.18404 46.6246 7.49119 45.5217 7.87591 43.9918C7.97427 43.6007 8.0781 43.1799 8.19115 42.7217C8.49047 41.5086 8.85448 40.0333 9.35327 38.1511C10.7016 38.0316 11.92 38.3424 13.1573 38.8611C13.8777 39.163 14.5877 39.528 15.3396 39.918C15.3723 39.9349 15.4051 39.952 15.4379 39.969C15.9288 40.2237 16.4382 40.4881 16.9626 40.7388Z" stroke="#5C62E3" stroke-width="2"/>
<path d="M25.154 12.2158C25.7392 12.8559 26.4433 13.6239 27.2022 14.456C24.0477 17.4551 20.8474 20.4816 17.574 23.5904C16.1111 21.9903 14.3738 20.0976 12.6731 18.2323C13.1577 17.7568 13.8983 17.0345 14.7121 16.239C15.7362 17.2082 16.7877 18.2048 17.7386 19.1009C20.2257 16.7967 22.6579 14.5383 25.154 12.2158Z" fill="#5C62E3"/>
</svg>
