<svg width="71" height="71" viewBox="0 0 71 71" fill="none" xmlns="http://www.w3.org/2000/svg">
<path d="M17.177 22.9072V33.2078H27.4776V22.9072H17.177ZM25.1994 30.9297H19.4691V25.1994H25.1994V30.9297Z" fill="#5C62E3"/>
<path d="M29.7697 22.9072V33.2078H40.0702V22.9072H29.7697ZM37.7921 30.9297H32.0618V25.1994H37.7921V30.9297Z" fill="#5C62E3"/>
<path d="M42.3765 22.9072V33.2078H52.6771V22.9072H42.3765ZM50.3849 30.9157H44.6546V25.1854H50.3849V30.9157Z" fill="#5C62E3"/>
<path d="M4.58423 35.5V45.8006H14.8848V35.5H4.58423ZM12.6067 43.5224H6.87636V37.7921H12.6067V43.5224Z" fill="#5C62E3"/>
<path d="M17.177 35.5V45.8006H27.4776V35.5H17.177ZM25.1994 43.5224H19.4691V37.7921H25.1994V43.5224Z" fill="#5C62E3"/>
<path d="M29.7697 35.5V45.8006H40.0702V35.5H29.7697ZM37.7921 43.5224H32.0618V37.7921H37.7921V43.5224Z" fill="#5C62E3"/>
<path d="M25.1993 11.4468H22.9072V13.7389H25.1993V11.4468Z" fill="#5C62E3"/>
<path d="M29.7697 11.4468H27.4775V13.7389H29.7697V11.4468Z" fill="#5C62E3"/>
<path d="M34.3539 11.4468H32.0618V13.7389H34.3539V11.4468Z" fill="#5C62E3"/>
<path d="M57.2612 39.1199V5.73031H48.1067V4.01122C48.1067 1.80295 46.3037 0 44.0955 0C41.8872 0 40.0842 1.80295 40.0842 4.01122V5.73031H17.177V4.01122C17.177 1.80295 15.374 0 13.1657 0C10.9575 0 9.15453 1.80295 9.15453 4.01122V5.73031H0V51.5309H39.3155C39.0779 52.635 38.9382 53.7811 38.9382 54.9691C38.9382 63.8161 46.136 71 54.9691 71C63.8022 71 71 63.8022 71 54.9691C71 46.9047 65.0181 40.238 57.2612 39.1199ZM42.3764 5.73031V4.01122C42.3764 3.06083 43.1451 2.29213 44.0955 2.29213C45.0459 2.29213 45.8146 3.06083 45.8146 4.01122V5.73031V11.4606H42.3764V5.73031ZM11.4467 5.73031V4.01122C11.4467 3.06083 12.2154 2.29213 13.1657 2.29213C14.1161 2.29213 14.8848 3.06083 14.8848 4.01122V5.73031V11.4606H11.4467V5.73031ZM2.29213 8.02244H9.15453V13.7528H17.177V8.02244H40.0842V13.7528H48.1067V8.02244H54.9831V17.1909H2.29213V8.02244ZM2.29213 49.2388V19.4691H54.9691V38.9382C48.1486 38.9382 42.3205 43.2289 40.0144 49.2388H2.29213ZM54.9691 68.7079C47.3939 68.7079 41.2303 62.5443 41.2303 54.9691C41.2303 47.3939 47.3939 41.2303 54.9691 41.2303C62.5443 41.2303 68.7079 47.3939 68.7079 54.9691C68.7079 62.5443 62.5443 68.7079 54.9691 68.7079Z" fill="#5C62E3"/>
<path d="M56.1151 54.969V45.8005H53.823V57.2612H61.8454V54.969H56.1151Z" fill="#5C62E3"/>
</svg>
