<svg width="60" height="60" viewBox="0 0 60 60" fill="none" xmlns="http://www.w3.org/2000/svg">
<path d="M27.3725 41.1692C32.6821 41.1692 37.8705 41.1692 43.0589 41.1692C45.0712 41.1692 47.0835 41.1692 49.0959 41.1692C49.8232 41.1692 50.5748 41.2419 50.5748 42.1628C50.5748 43.1322 49.7747 43.108 49.0716 43.108C34.5974 43.108 20.099 43.108 5.62481 43.1322C4.46106 43.1322 3.2973 43.1322 2.01232 43.1322C2.01232 44.9741 1.8911 46.719 2.06081 48.4639C2.18204 49.7726 3.44277 50.5481 5.04293 50.5481C10.789 50.5481 16.5592 50.5481 22.3053 50.5481C33.0943 50.5481 43.8832 50.5481 54.6479 50.5481C57.1452 50.5481 58.0665 49.6272 58.0665 47.131C58.0665 45.8465 58.0665 44.5621 58.0665 43.108C56.9755 43.108 55.9814 43.108 54.9874 43.108C54.2843 43.108 53.4842 43.1564 53.4599 42.187C53.4357 41.1449 54.2843 41.1692 55.0359 41.1692C56.0057 41.1692 56.9512 41.1692 58.0665 41.1692C58.0665 40.636 58.0665 40.224 58.0665 39.7878C58.0665 31.0874 58.0665 22.4112 58.0665 13.7108C58.0665 11.2873 57.1209 10.3664 54.6964 10.3664C53.169 10.3664 51.6416 10.3664 50.1142 10.3664C49.3868 10.3664 48.7564 10.1725 48.7564 9.34849C48.7807 8.50026 49.4353 8.40332 50.1626 8.40332C51.8598 8.42756 53.5327 8.37908 55.2298 8.42756C58.0665 8.50026 59.9818 10.4148 59.9818 13.2503C60.0061 24.7135 60.0061 36.1767 59.9818 47.6399C59.9818 50.4997 57.9453 52.4385 55.0601 52.4385C38.4766 52.4385 21.8931 52.4385 5.33387 52.4385C1.86686 52.4627 0 50.6208 0 47.1795C0 36.0071 0 24.8105 0 13.6381C0 10.2694 1.86686 8.42756 5.23689 8.42756C9.21305 8.42756 13.2135 8.42756 17.1896 8.42756C17.917 8.42756 18.717 8.42756 18.7413 9.32425C18.7655 10.2937 17.9655 10.3664 17.1896 10.3664C13.2135 10.3664 9.21305 10.3664 5.23689 10.3664C2.88514 10.3664 1.96384 11.3115 1.96384 13.6623C1.96384 22.387 1.96384 31.1116 1.96384 39.8605C1.96384 40.2482 1.98808 40.636 2.01232 41.0965C2.90938 41.0965 3.73371 41.0965 4.63077 41.0965C4.752 38.5518 5.64906 36.3706 7.44318 34.6014C7.73412 34.3106 8.02505 33.9471 8.36448 33.8502C8.7524 33.7532 9.40701 33.7532 9.60097 33.9956C9.79493 34.2379 9.74644 34.9165 9.52824 35.2316C9.06758 35.8859 8.29175 36.3221 7.92807 37.0007C7.27346 38.2125 6.8613 39.5454 6.25518 41.048C12.8255 41.048 19.0322 41.048 25.3844 41.048C25.3844 39.2546 24.657 37.752 23.5175 36.4191C23.1054 35.9344 22.572 35.5466 22.0628 35.1589C21.5052 34.7469 20.9718 34.3106 21.4567 33.5836C21.9901 32.7838 22.6447 33.1958 23.2266 33.6078C25.6026 35.2558 26.9361 37.5581 27.324 40.4179C27.324 40.6117 27.324 40.8056 27.3725 41.1692Z" fill="#5C62E3"/>
<path d="M20.5839 13.4444C20.5839 10.512 20.5597 7.57952 20.5839 4.64708C20.6081 1.78734 22.3053 0.0424114 25.1662 0.0181763C30.8395 -0.00605877 36.5128 -0.00605877 42.1861 0.0181763C45.1197 0.0424114 46.8653 1.86004 46.8653 4.81672C46.8896 7.79764 46.8896 10.7786 46.8653 13.7352C46.8411 16.8131 44.9015 18.7519 41.7739 18.7761C37.822 18.8004 33.8943 18.7519 29.9424 18.8004C29.2878 18.8004 28.5362 19.0912 28.0028 19.4789C26.136 20.8603 24.3419 22.3629 22.475 23.7686C22.1356 24.0109 21.481 24.2533 21.2143 24.1078C20.8748 23.8897 20.6081 23.2839 20.6081 22.8476C20.5597 19.7213 20.5839 16.5707 20.5839 13.4444ZM22.4992 21.345C24.1721 20.0364 25.6511 18.9458 27.0573 17.7583C27.8816 17.0554 28.7302 16.7889 29.7969 16.8131C33.7731 16.8616 37.7735 16.8616 41.7497 16.8373C43.8832 16.8373 44.95 15.7467 44.9742 13.6383C44.9742 10.6574 44.9985 7.67646 44.9742 4.71978C44.9742 2.99909 44.0044 1.95698 42.3073 1.95698C36.5613 1.93275 30.791 1.93275 25.045 1.95698C23.4933 1.95698 22.5235 2.87792 22.5235 4.42896C22.475 9.95456 22.4992 15.5044 22.4992 21.345Z" fill="#5C62E3"/>
<path d="M38.2099 57.9399C38.2099 57.019 38.0886 56.195 38.2583 55.4194C38.3311 55.0074 38.8887 54.6924 39.2281 54.3289C39.5191 54.6924 40.004 55.0074 40.0767 55.4194C40.2222 56.195 40.1252 57.019 40.1252 58.0126C40.6343 58.0126 41.095 58.0126 41.5556 58.0126C42.283 58.0126 43.0346 58.0368 43.0588 58.9578C43.0831 59.9514 42.3072 59.9272 41.6041 59.9272C36.5854 59.9272 31.5425 59.9514 26.5238 59.9514C23.7842 59.9514 21.0445 59.9272 18.3291 59.9272C17.6502 59.9272 16.9229 59.9029 16.9229 59.0305C16.9229 58.1095 17.626 57.9884 18.3775 58.0126C18.814 58.0126 19.2504 58.0126 19.8807 58.0126C19.8807 57.1401 19.7837 56.2919 19.9292 55.4921C20.0019 55.0559 20.5111 54.7166 20.8263 54.3289C21.1415 54.7166 21.6748 55.0559 21.7476 55.4679C21.8931 56.2434 21.7961 57.0432 21.7961 57.9399C27.2512 57.9399 32.6578 57.9399 38.2099 57.9399Z" fill="#5C62E3"/>
<path d="M20.9233 28.5914C20.8021 30.8938 20.002 32.8326 18.3291 34.3352C16.5593 35.9104 14.5954 35.9347 12.7528 34.5048C10.4495 32.6872 9.40702 29.1246 10.4253 26.4588C11.3466 24.0352 13.6256 22.3873 15.8319 22.5811C18.1109 22.775 20.3172 24.9077 20.7779 27.3797C20.8748 27.7674 20.8991 28.2279 20.9233 28.5914ZM19.008 28.4945C18.911 28.1067 18.7898 27.3312 18.4746 26.6526C17.917 25.4166 16.9472 24.5199 15.541 24.4957C14.062 24.4472 13.0922 25.3924 12.4376 26.6284C11.3466 28.7126 12.2922 32.0086 14.3287 33.2446C15.2985 33.8262 16.1956 33.6808 16.9957 32.978C18.2079 31.8874 18.8383 30.506 19.008 28.4945Z" fill="#5C62E3"/>
<path d="M44.4409 27.2097C41.3861 27.2097 38.3312 27.2097 35.2764 27.2097C34.549 27.2097 33.7489 27.1855 33.7247 26.2888C33.6762 25.3194 34.5005 25.2225 35.2764 25.2225C41.2891 25.2225 47.3261 25.2225 53.3388 25.2225C53.5328 25.2225 53.7752 25.1498 53.9449 25.2467C54.4056 25.5133 55.1572 25.7799 55.2299 26.1676C55.3754 26.9674 54.6723 27.2097 53.9692 27.2097C51.3992 27.2097 48.8293 27.2097 46.2593 27.2097C45.6532 27.2097 45.0471 27.2097 44.4409 27.2097Z" fill="#5C62E3"/>
<path d="M44.5862 32.7356C47.5684 32.7356 50.5262 32.7356 53.5084 32.7356C53.7508 32.7356 54.0417 32.6629 54.2115 32.7599C54.5994 33.0265 54.9388 33.3658 55.3025 33.6808C54.9388 34.0201 54.5751 34.626 54.1872 34.6502C52.4173 34.7714 50.6475 34.7229 48.9018 34.7229C44.4165 34.7229 39.907 34.7229 35.4217 34.7229C35.2277 34.7229 34.961 34.7956 34.8398 34.6987C34.4519 34.3836 34.1125 33.9959 33.7488 33.6566C34.1125 33.3658 34.4761 32.8326 34.864 32.8084C36.1005 32.6872 37.3613 32.7599 38.5978 32.7599C40.5616 32.7356 42.5739 32.7356 44.5862 32.7356Z" fill="#5C62E3"/>
<path d="M30.3061 9.34873C30.3061 8.13697 30.2818 6.94945 30.3061 5.7377C30.3303 4.38053 31.0092 3.96854 32.1487 4.64712C34.1853 5.85887 36.1976 7.09486 38.2099 8.35509C39.2524 9.00943 39.2767 9.73649 38.2342 10.3908C36.1976 11.6753 34.1368 12.9113 32.0759 14.1473C30.9849 14.8016 30.3303 14.3896 30.3061 13.0809C30.2818 11.8207 30.3061 10.5847 30.3061 9.34873ZM32.3426 7.02216C32.3426 8.64591 32.3426 10.0758 32.3426 11.7238C33.6519 10.924 34.8641 10.197 36.1976 9.37296C34.8399 8.54897 33.6519 7.82192 32.3426 7.02216Z" fill="#5C62E3"/>
</svg>
